HIERARCHY
ROOT SpineBase
{
  OFFSET 0.000000 0.000000 0.000000
  CHANNELS 6 Xposition Yposition Zposition Zrotation Xrotation Yrotation
  JOINT SpineMid
  {
    OFFSET 0.000000 31.650363 0.000000
    CHANNELS 3 Zrotation Xrotation Yrotation
    JOINT SpineShoulder
    {
      OFFSET -0.038748 23.479783 -0.682570
      CHANNELS 3 Zrotation Xrotation Yrotation
      JOINT Neck
      {
        OFFSET -0.040101 7.759357 -0.528617
        CHANNELS 3 Zrotation Xrotation Yrotation
        JOINT Head
        {
          OFFSET -3.718279 13.035937 1.939668
          CHANNELS 3 Zrotation Xrotation Yrotation
          End Site
          {
            OFFSET 0 0 0
          }
        }
      }
      JOINT ShoulderLeft
      {
        OFFSET -14.708859 -5.274416 10.232869
        CHANNELS 3 Zrotation Xrotation Yrotation
        JOINT ElbowLeft
        {
          OFFSET -2.445911 -30.304792 2.017423
          CHANNELS 3 Zrotation Xrotation Yrotation
          JOINT WristLeft
          {
            OFFSET -0.892769 -23.145821 -1.883310
            CHANNELS 3 Zrotation Xrotation Yrotation
            JOINT HandLeft
            {
              OFFSET 0.991612 -4.668700 -0.287031
              CHANNELS 3 Zrotation Xrotation Yrotation
              JOINT HandTipLeft
              {
                OFFSET 0.510092 -7.340541 0.112238
                CHANNELS 3 Zrotation Xrotation Yrotation
                End Site
                {
                  OFFSET 0 0 0
                }
              }
              JOINT ThumbLeft
              {
                OFFSET 1.499216 -1.000018 -4.224102
                CHANNELS 3 Zrotation Xrotation Yrotation
                End Site
                {
                  OFFSET 0 0 0
                }
              }
            }
          }
        }
      }
      JOINT ShoulderRight
      {
        OFFSET 11.765221 -3.951649 -10.519527
        CHANNELS 3 Zrotation Xrotation Yrotation
        JOINT ElbowRight
        {
          OFFSET 7.778066 -28.818029 -4.513043
          CHANNELS 3 Zrotation Xrotation Yrotation
          JOINT WristRight
          {
            OFFSET 1.224044 -23.296045 -5.809293
            CHANNELS 3 Zrotation Xrotation Yrotation
            JOINT HandRight
            {
              OFFSET 0.509356 -6.132100 -0.544972
              CHANNELS 3 Zrotation Xrotation Yrotation
              JOINT HandTipRight
              {
                OFFSET 0.971528 -6.131099 -4.913775
                CHANNELS 3 Zrotation Xrotation Yrotation
                End Site
                {
                  OFFSET 0 0 0
                }
              }
              JOINT ThumbRight
              {
                OFFSET -2.563898 -2.230413 0.202520
                CHANNELS 3 Zrotation Xrotation Yrotation
                End Site
                {
                  OFFSET 0 0 0
                }
              }
            }
          }
        }
      }
    }
  }
  JOINT HipLeft
  {
    OFFSET -6.367042 -0.015590 0.178854
    CHANNELS 3 Zrotation Xrotation Yrotation
    JOINT KneeLeft
    {
      OFFSET -1.171500 -37.619247 5.107910
      CHANNELS 3 Zrotation Xrotation Yrotation
      JOINT AnkleLeft
      {
        OFFSET -0.054318 -35.806369 9.607606
        CHANNELS 3 Zrotation Xrotation Yrotation
        JOINT FootLeft
        {
          OFFSET -4.189487 -7.043700 -3.974009
          CHANNELS 3 Zrotation Xrotation Yrotation
          End Site
          {
            OFFSET 0 0 0
          }
        }
      }
    }
  }
  JOINT HipRight
  {
    OFFSET 5.314360 1.609827 -7.328337
    CHANNELS 3 Zrotation Xrotation Yrotation
    JOINT KneeRight
    {
      OFFSET 8.185434 -38.428894 -2.397183
      CHANNELS 3 Zrotation Xrotation Yrotation
      JOINT AnkleRight
      {
        OFFSET 8.878511 -35.532986 7.499633
        CHANNELS 3 Zrotation Xrotation Yrotation
        JOINT FootRight
        {
          OFFSET -0.298103 -7.456782 -7.156724
          CHANNELS 3 Zrotation Xrotation Yrotation
          End Site
          {
            OFFSET 0 0 0
          }
        }
      }
    }
  }
}
MOTION
Frames: 11
Frame Time: 0.033333
54.028468 82.286038 344.046701 0.727163 -0.985340 42.733436 -0.439599 -0.437340 -42.706984 0.050501 -0.493018 0.025110 9.319229 7.441293 -0.813562 0.000000 0.000000 0.000000 1.552191 -1.800652 0.435390 -16.941022 42.352737 5.207735 3.051248 59.616379 34.789106 -13.180770 1.225832 -31.405265 0.000000 0.000000 0.000000 0.000000 0.000000 0.000000 -3.339467 21.481713 6.064394 -63.556833 -24.109926 -16.868803 -28.905585 -14.653698 -22.776177 22.521532 -24.676569 31.569332 0.000000 0.000000 0.000000 0.000000 0.000000 0.000000 -1.441786 8.286660 -43.538200 5.246142 -5.529219 0.874955 -2.807017 6.401120 -0.430883 0.000000 0.000000 0.000000 -0.986278 -0.138872 -43.098566 -0.927495 -0.878712 -0.442729 -3.498171 2.327224 5.136186 0.000000 0.000000 0.000000
54.213228 82.274852 343.701853 1.210144 -1.167553 45.723949 -0.410424 -0.433495 -45.674174 0.146344 -0.406366 0.052408 10.864926 8.959107 -1.090524 0.000000 0.000000 0.000000 1.026158 -2.804572 0.518267 -21.549884 47.836548 8.262429 35.018075 62.680111 27.533838 -30.892322 19.003280 -55.200226 0.000000 0.000000 0.000000 0.000000 0.000000 0.000000 -12.719175 22.354245 9.636340 -69.704927 -28.121062 -25.901545 -22.911098 -17.879532 -31.057006 23.766524 -17.448923 32.512766 0.000000 0.000000 0.000000 0.000000 0.000000 0.000000 -1.337600 12.029756 -46.888548 8.344311 -7.234013 1.721669 -6.124380 9.229815 -0.592527 0.000000 0.000000 0.000000 -1.130827 -0.056450 -46.153981 -1.371268 -0.987632 -0.463948 -3.571663 2.172137 5.440712 0.000000 0.000000 0.000000
54.109348 82.599400 343.680160 1.438045 -1.674576 49.786309 -0.272793 -0.379805 -49.720598 0.268165 -0.392705 0.070475 12.373857 11.105020 -1.362183 0.000000 0.000000 0.000000 1.587147 -5.587856 0.901424 -27.333646 52.918970 12.248538 65.560421 62.256491 18.809383 -50.181262 35.915870 -70.742132 0.000000 0.000000 0.000000 0.000000 0.000000 0.000000 -24.281368 21.267393 13.630584 -72.282312 -30.916967 -34.652387 -18.689767 -23.764074 -45.403370 21.892619 -7.397398 35.308208 0.000000 0.000000 0.000000 0.000000 0.000000 0.000000 0.736277 15.835442 -51.520631 10.530313 -8.753000 2.495967 -8.179336 9.401313 -0.282901 0.000000 0.000000 0.000000 -0.617869 -0.066145 -50.287960 -1.974285 -1.083306 -0.435133 -0.726717 0.240727 2.738879 0.000000 0.000000 0.000000
53.722292 82.419039 343.095860 2.039850 -1.750895 54.360068 -0.166524 -0.467487 -54.262721 0.230880 -0.300127 0.099429 13.418743 13.642785 -1.463799 0.000000 0.000000 0.000000 0.551235 -6.542044 0.937205 -29.023557 54.398899 13.902728 78.220731 53.953896 18.732966 -64.331306 43.082256 -62.383717 0.000000 0.000000 0.000000 0.000000 0.000000 0.000000 -36.137276 18.581402 16.900712 -75.893457 -33.465529 -46.414914 -11.567654 -25.967589 -56.551150 16.728929 0.055245 41.650946 0.000000 0.000000 0.000000 0.000000 0.000000 0.000000 2.383975 18.842496 -56.739269 11.011233 -9.394793 2.540336 -8.990757 11.244808 -0.315008 0.000000 0.000000 0.000000 -1.169698 -0.816225 -55.113047 -2.679365 -0.372058 -0.139977 -5.023821 2.095577 6.795495 0.000000 0.000000 0.000000
52.968210 81.854133 342.271663 2.833342 -1.665099 57.685139 -0.099738 -0.526291 -57.550712 0.188381 -0.189492 0.132705 13.411862 16.563195 -1.254029 0.000000 0.000000 0.000000 -2.094815 -5.830040 0.624356 -26.250419 52.776283 12.811835 88.225850 28.795467 26.875266 -88.658104 37.997535 -25.981092 0.000000 0.000000 0.000000 0.000000 0.000000 0.000000 -48.238790 13.955363 18.683395 -79.139246 -34.981109 -59.951640 4.247554 -25.296588 -64.930876 6.716281 -0.045179 56.920558 0.000000 0.000000 0.000000 0.000000 0.000000 0.000000 3.415089 20.327243 -60.494423 9.019476 -7.881433 1.667949 -9.515407 14.454502 -0.697086 0.000000 0.000000 0.000000 -2.014003 -1.710495 -58.723268 -3.410433 0.413999 0.247630 -8.151327 2.664179 9.499354 0.000000 0.000000 0.000000
52.203689 80.985745 341.328484 3.756318 -1.424568 60.132128 -0.036941 -0.546303 -59.961717 0.138306 -0.082797 0.168202 11.949445 19.276750 -0.616688 0.000000 0.000000 0.000000 -5.152772 -3.287676 0.132228 -23.532311 48.689434 11.335248 -1.814305 82.961321 67.138228 -76.403265 -29.424238 -77.448620 0.000000 0.000000 0.000000 0.000000 0.000000 0.000000 -59.423394 8.846399 18.876983 -79.817874 -35.330837 -72.467932 12.563301 -17.433909 -62.978959 7.146881 -3.936958 71.991916 0.000000 0.000000 0.000000 0.000000 0.000000 0.000000 3.760194 21.028898 -63.172863 5.555055 -5.378775 0.321051 -8.406639 15.679171 -0.525085 0.000000 0.000000 0.000000 -3.267299 -2.584401 -61.479934 -4.132823 1.465292 0.709477 -10.286932 2.295521 11.205802 0.000000 0.000000 0.000000
50.714482 80.028561 340.140891 4.887283 -0.969145 60.959184 0.006698 -0.509858 -60.758106 0.070940 -0.003304 0.208208 8.928734 21.604090 0.518381 0.000000 0.000000 0.000000 -9.494013 1.560112 -0.498396 -13.514216 42.066035 6.565974 -41.472870 72.815061 80.425810 -78.490197 -63.207440 -85.639341 0.000000 0.000000 0.000000 0.000000 0.000000 0.000000 -69.649406 4.009697 17.780045 -78.622200 -35.207986 -84.284250 26.050265 -11.822333 -66.799785 2.597020 -8.726878 101.665774 0.000000 0.000000 0.000000 0.000000 0.000000 0.000000 3.230382 21.643141 -64.083733 2.316328 -3.188607 -0.813441 -5.042978 14.507556 -0.568285 0.000000 0.000000 0.000000 -4.243702 -3.907052 -62.614933 -5.218320 2.055740 1.195360 -8.090573 -0.092422 8.310456 0.000000 0.000000 0.000000
48.894236 79.027650 338.872118 5.796901 -0.391466 60.183077 0.060997 -0.544345 -59.971395 0.022393 0.038467 0.243375 5.558037 23.491695 1.824648 0.000000 0.000000 0.000000 -13.138074 6.420528 -0.895258 -9.512211 37.096084 5.494291 -50.513562 46.345219 45.826151 73.841278 -66.746857 45.103088 0.000000 0.000000 0.000000 0.000000 0.000000 0.000000 -77.744962 0.080106 15.787633 -74.577644 -33.877505 -86.008922 31.927447 -8.716419 -70.186149 -10.532898 -3.315132 146.543964 0.000000 0.000000 0.000000 0.000000 0.000000 0.000000 1.874871 21.665305 -63.148007 -0.601684 -1.171756 -1.711076 -4.547084 15.814388 -0.176803 0.000000 0.000000 0.000000 -4.524074 -5.817894 -62.112467 -7.076717 2.205298 1.604558 -12.947590 1.716473 12.754384 0.000000 0.000000 0.000000
46.494526 78.115631 337.581176 6.949562 0.252478 58.205336 0.026600 -0.353951 -57.998348 -0.033029 0.073229 0.277768 3.018507 24.245226 2.694618 0.000000 0.000000 0.000000 -14.881190 11.880503 -1.192865 -9.757613 32.626167 5.283883 -55.996431 40.417475 39.651151 68.856411 -54.590476 34.530159 0.000000 0.000000 0.000000 0.000000 0.000000 0.000000 -84.418217 -1.940326 14.745367 -71.737576 -32.758604 -90.117899 36.427292 -3.493577 -68.977644 -37.983665 -10.970486 -165.215475 0.000000 0.000000 0.000000 0.000000 0.000000 0.000000 0.240663 22.675533 -61.143604 -0.702185 -1.582739 -1.811011 -0.461454 13.112182 -0.945305 0.000000 0.000000 0.000000 -4.541763 -7.674746 -60.332654 -8.702476 2.148641 2.033105 -15.432839 2.620124 14.432248 0.000000 0.000000 0.000000
43.788600 77.454975 336.402323 7.993183 0.865378 55.117999 -0.066364 -0.097127 -54.935296 -0.087130 0.086100 0.304959 2.559284 24.535417 2.806042 0.000000 0.000000 0.000000 -16.817320 17.703967 -1.379813 -18.371385 30.965049 7.235571 -47.540585 30.326484 28.664347 73.454085 -45.519512 34.811719 0.000000 0.000000 0.000000 0.000000 0.000000 0.000000 -88.329205 -3.346939 13.281366 -66.776448 -32.251855 -83.667367 39.138538 -5.532327 -70.910829 -47.937291 -16.270300 -159.352306 0.000000 0.000000 0.000000 0.000000 0.000000 0.000000 -1.717853 23.701798 -57.974830 1.041865 -3.049002 -1.285201 2.170190 11.329518 -2.338844 0.000000 0.000000 0.000000 -4.025055 -9.374388 -57.326721 -9.949114 1.878599 2.404254 -15.716832 2.862759 13.649114 0.000000 0.000000 0.000000
41.201407 77.126649 335.462422 8.786455 1.448980 51.919736 -0.075298 -0.016010 -51.768936 0.060823 0.038088 0.349685 2.292621 24.255622 2.647802 0.000000 0.000000 0.000000 -20.817876 23.524716 -1.192995 -14.898448 28.350620 6.836329 -27.767845 23.779017 22.942077 47.992597 -45.298474 17.472739 0.000000 0.000000 0.000000 0.000000 0.000000 0.000000 -89.888625 -2.685422 13.843356 -61.963172 -31.908905 -75.348932 38.369250 -8.254838 -68.129695 -39.317057 -8.864695 179.926788 0.000000 0.000000 0.000000 0.000000 0.000000 0.000000 -3.530062 24.819630 -54.755443 4.743301 -5.972335 -0.010807 2.420746 9.876057 -3.482363 0.000000 0.000000 0.000000 -3.261022 -10.591320 -54.090532 -10.420537 1.458966 2.678851 -10.051263 -1.047903 6.612248 0.000000 0.000000 0.000000
